<?xml version="1.0" encoding="UTF-8"?>
<svg id="_Слой_1" data-name="Слой 1" xmlns="http://www.w3.org/2000/svg" viewBox="0 0 39.14 44">
  <defs>
    <style>
      .cls-1 {
        fill: #fff;
        stroke-width: 0px;
      }
    </style>
  </defs>
  <path class="cls-1" d="m38.14,14.17c.96-.55,1.29-1.77.74-2.73,0,0,0,0,0,0l-.5-.86c-.55-.96-1.77-1.29-2.73-.74,0,0,0,0,0,0l-11.84,6.84c-.95.55-1.73.1-1.73-1V2c0-1.1-.9-2-2-2h-1c-1.1,0-2,.9-2,2v13.67c0,1.1-.78,1.55-1.73,1L3.5,9.83c-.96-.55-2.18-.22-2.73.74,0,0,0,0,0,0l-.5.86c-.56.95-.23,2.18.72,2.73,0,0,0,0,0,0l11.84,6.83c.55.19.84.8.65,1.35-.11.3-.35.54-.65.65L1,29.83c-.96.55-1.29,1.77-.74,2.73,0,0,0,0,0,0l.5.86c.55.96,1.77,1.29,2.73.74,0,0,0,0,0,0l11.84-6.84c.95-.55,1.73-.1,1.73,1v13.67c0,1.1.9,2,2,2h1c1.1,0,2-.9,2-2v-13.67c0-1.1.78-1.55,1.73-1l11.84,6.84c.96.55,2.18.22,2.73-.74,0,0,0,0,0,0l.5-.86c.56-.95.23-2.18-.72-2.73,0,0,0,0,0,0l-11.84-6.83c-.55-.19-.84-.8-.65-1.35.11-.3.35-.54.65-.65l11.84-6.83Z"/>
</svg>